<?xml version="1.0" standalone="no"?>
<!DOCTYPE svg PUBLIC "-//W3C//DTD SVG 20010904//EN"
 "http://www.w3.org/TR/2001/REC-SVG-20010904/DTD/svg10.dtd">
<svg version="1.0" xmlns="http://www.w3.org/2000/svg"
 width="128.000000pt" height="128.000000pt" viewBox="0 0 128.000000 128.000000"
 preserveAspectRatio="xMidYMid meet">
<metadata>
Created by potrace 1.11, written by Peter Selinger 2001-2013
</metadata>
<g transform="translate(0.000000,128.000000) scale(0.100000,-0.100000)"
fill="#000000" stroke="none">
<path d="M60 635 l0 -625 85 0 85 0 0 35 0 35 410 0 410 0 0 -35 0 -35 90 0
90 0 0 625 0 625 -585 0 -585 0 0 -625z m990 35 l0 -440 -410 0 -410 0 0 440
0 440 410 0 410 0 0 -440z"/>
<path d="M300 960 l0 -70 130 0 130 0 0 -65 0 -65 -115 0 -115 0 0 -70 0 -70
115 0 115 0 0 -85 0 -85 -140 0 -140 0 0 -65 0 -65 360 0 360 0 0 65 0 65 -47
1 -48 0 33 16 c17 9 32 21 32 26 0 6 -21 35 -46 66 l-46 56 36 3 36 3 0 70 0
69 -120 0 -120 0 0 65 0 65 135 0 135 0 0 70 0 70 -340 0 -340 0 0 -70z m530
-345 c0 -2 -16 -13 -35 -22 l-34 -18 35 -45 c64 -81 64 -80 -16 -80 l-70 0 0
85 0 85 60 0 c33 0 60 -2 60 -5z"/>
</g>
</svg>
